<?xml version="1.0" encoding="utf-8"?>
<svg xmlns="http://www.w3.org/2000/svg" preserveAspectRatio="none" viewBox="490.3203 1803.0117 1792.6406 1255.1797" width="1792.64px" height="1255.18px">
  <path fill-rule="evenodd" fill="rgb(5.447388%, 5.892944%, 5.529785%)" fill-opacity="1" d="M 1494.738281 3011.46875 L 2184.800781 3011.46875 L 2184.800781 2119.28125 L 1956.699219 1891.179688 L 537.046875 1891.179688 L 537.046875 2769.160156 L 1242.761719 2769.160156 C 1249.210938 2769.160156 1255.050781 2771.78125 1259.269531 2776.011719 Z M 820.65625 3007.640625 L 707.472656 3007.640625 L 566.148438 2864.929688 L 679.332031 2864.929688 Z M 997.753906 3007.640625 L 884.570312 3007.640625 L 743.242188 2864.929688 L 856.429688 2864.929688 Z M 1174.871094 3007.640625 L 1061.679688 3007.640625 L 920.363281 2864.929688 L 1033.550781 2864.929688 Z M 1351.988281 3007.640625 L 1238.800781 3007.640625 L 1097.480469 2864.929688 L 1210.660156 2864.929688 Z M 2161.25 1979.128906 L 1985.128906 1803.011719 L 1783.46875 1803.011719 L 1742.421875 1844.460938 L 513.683594 1844.460938 C 500.78125 1844.460938 490.320312 1854.921875 490.320312 1867.820312 L 490.320312 2792.519531 C 490.320312 2805.429688 500.78125 2815.890625 513.683594 2815.890625 L 1233.078125 2815.890625 L 1465.351562 3048.148438 C 1469.570312 3054.21875 1476.589844 3058.191406 1484.539062 3058.191406 L 2208.160156 3058.191406 C 2221.058594 3058.191406 2231.519531 3047.730469 2231.519531 3034.828125 L 2231.519531 2361.128906 L 2282.960938 2310.191406 L 2282.960938 2100.839844 L 2161.25 1979.128906 "/>
</svg>